:SAMPLES-PER-SECOND 30
:FULLY-SPECIFIED
:DEGREES
16
root  2.77236 39.6064 2.16398 -138.481 -84.363 135.623
RightUpLeg  -14.9061 -7.58135 -17.133
RightLeg  17.8619 -16.7237 -6.08004
RightFoot  -0.224779 -0.914733 9.36075
RightToes  -1.33073e-015 0 -3.6325e-017
Spine  9.7106 -1.86125 -6.87201
Spine1  11.4917 -2.69761 0.021572
HEad  44.2615 -13.1514 -5.11998
LeftShoulder1  1.82359 -4.62407 -15.6551
LeftArm  -0.744156 1.65162 -54.7457
LeftForeArm  -11.0444 -27.0657 -6.34779
LeftHand  -0.694906 -0.746111 13.2595
RightShoulder  1.44977 2.42663 17.9383
RightArm  -2.62546 11.4283 53.6763
RightForeArm  29.864 7.8421 12.4356
RightHand  -0.272026 -2.53497 -10.6694
LeftUpLeg  -5.32079 9.38648 3.0581
LeftLeg  11.7084 16.1721 2.21896
LeftFoot  -1.53369 0.985414 -11.3521
LeftToes  -4.0021e-011 8.38769e-011 -3.99229e-011
17
root  2.84408 39.6538 2.33534 -135.975 -85.3183 132.992
RightUpLeg  -15.3391 -8.58292 -16.2594
RightLeg  21.6071 -16.3155 -7.18315
RightFoot  -0.970716 -0.937236 10.2226
RightToes  -1.33073e-015 0 -3.6325e-017
Spine  10.2257 -2.31484 -7.70256
Spine1  11.3512 -3.82822 1.82414
HEad  44.0484 -14.0444 -5.7378
LeftShoulder1  1.90219 -5.06454 -15.3996
LeftArm  2.15285 2.27317 -54.4477
LeftForeArm  -14.5451 -23.9456 -6.02743
LeftHand  -0.620263 -0.673471 11.9904
RightShoulder  1.46044 2.52092 17.7121
RightArm  -10.2552 11.8741 54.1969
RightForeArm  39.5488 -1.13188 13.124
RightHand  -0.120038 -3.9245 -8.10874
LeftUpLeg  -5.34095 9.2508 3.11043
LeftLeg  11.3603 15.5328 2.22496
LeftFoot  -1.24444 0.989784 -11.0942
LeftToes  -4.0021e-011 8.38769e-011 -3.99229e-011
18
root  2.87027 39.6757 2.41935 -131.873 -85.8666 128.888
RightUpLeg  -15.6842 -7.22956 -15.6746
RightLeg  25.0633 -15.1442 -7.78567
RightFoot  -2.76643 -0.796701 10.3519
RightToes  -1.33073e-015 0 -3.6325e-017
Spine  10.3009 -2.25589 -8.44768
Spine1  11.5207 -4.33051 3.43891
HEad  43.9304 -15.8878 -5.94515
LeftShoulder1  1.95204 -5.43948 -14.99
LeftArm  3.2176 1.9673 -54.5483
LeftForeArm  -12.8795 -19.4697 -7.22047
LeftHand  -0.522594 -0.705589 10.0743
RightShoulder  1.47892 2.55299 17.9039
RightArm  -11.7225 10.4954 53.9358
RightForeArm  42.3797 -5.23509 12.3824
RightHand  -0.028329 -5.28049 -5.21623
LeftUpLeg  -5.38062 9.17411 3.08304
LeftLeg  11.0869 15.0585 2.14203
LeftFoot  -1.01228 1.00705 -11.0499
LeftToes  -4.0021e-011 8.38769e-011 -3.99229e-011
19
root  2.83945 39.6439 2.41247 -124.874 -86.1898 121.936
RightUpLeg  -15.4266 -5.32426 -15.1213
RightLeg  27.1287 -12.6288 -7.1483
RightFoot  -4.69606 -0.66599 10.8986
RightToes  -1.33073e-015 0 -3.6325e-017
Spine  10.2371 -2.02409 -9.04244
Spine1  11.5021 -4.49645 4.58611
HEad  44.3588 -18.0946 -5.92199
LeftShoulder1  1.97209 -5.59987 -14.8107
LeftArm  -1.00951 1.5333 -54.3531
LeftForeArm  -3.59787 -14.2454 -10.1836
LeftHand  -0.411991 -0.583132 8.10816
RightShoulder  1.54758 2.64414 18.7211
RightArm  -12.6039 7.40711 52.7341
RightForeArm  44.2601 -6.25264 12.0538
RightHand  -0.00475073 -6.11379 -3.61043
LeftUpLeg  -5.63748 9.27155 3.08902
LeftLeg  11.4198 14.4099 2.0265
LeftFoot  -1.25954 0.981762 -11.0193
LeftToes  -4.0021e-011 8.38769e-011 -3.99229e-011
20
root  2.73692 39.5984 2.34388 -108.11 -86.4328 105.324
RightUpLeg  -13.7987 -4.28672 -14.5425
RightLeg  26.3121 -9.48492 -5.30351
RightFoot  -5.34294 -0.655411 11.7526
RightToes  -1.33073e-015 0 -3.6325e-017
Spine  9.93314 -2.02102 -9.60282
Spine1  11.2989 -4.83589 5.63218
HEad  45.1805 -20.0928 -6.08338
LeftShoulder1  2.00178 -5.65658 -15.0191
LeftArm  -5.0496 1.95101 -53.9198
LeftForeArm  5.31215 -10.1469 -11.8418
LeftHand  -0.298379 -0.0785154 6.39054
RightShoulder  1.63305 2.78909 19.5645
RightArm  -12.7861 3.03884 51.4771
RightForeArm  44.8473 -5.21357 12.1918
RightHand  -0.00506643 -6.04102 -4.4787
LeftUpLeg  -6.02118 9.24378 2.92588
LeftLeg  11.8057 13.4507 1.84745
LeftFoot  -1.55711 0.948163 -10.9451
LeftToes  -4.0021e-011 8.38769e-011 -3.99229e-011
21
root  2.56703 39.6267 2.25029 -82.5703 -86.1436 79.9656
RightUpLeg  -10.7333 -3.30352 -14.017
RightLeg  22.5053 -8.1812 -3.88395
RightFoot  -4.4845 -0.728156 11.6277
RightToes  -1.33073e-015 0 -3.6325e-017
Spine  9.18377 -2.29766 -9.94859
Spine1  11.347 -5.39854 6.74091
HEad  46.131 -21.6836 -6.5453
LeftShoulder1  2.05517 -5.72932 -15.4633
LeftArm  -7.39888 3.27853 -53.2982
LeftForeArm  10.6413 -7.97236 -12.3073
LeftHand  -0.224566 0.60017 5.44374
RightShoulder  1.67573 2.8712 19.9273
RightArm  -12.5516 -1.97784 50.8792
RightForeArm  44.4099 -3.06913 12.5795
RightHand  -0.0346528 -5.20633 -7.05467
LeftUpLeg  -5.82635 8.9336 2.54891
LeftLeg  10.9305 12.3096 1.33512
LeftFoot  -1.13592 0.988605 -10.9698
LeftToes  -4.0021e-011 8.38769e-011 -3.99229e-011
